Coordinates
version=1
nRows=12
nColumns=24
inDegrees=yes

Units are S.I. units (second, meters, Newtons, ...)
Angles are in degrees.

endheader
time	pelvis_tilt	pelvis_list	pelvis_rotation	pelvis_tx	pelvis_ty	pelvis_tz	hip_flexion_r	hip_adduction_r	hip_rotation_r	knee_angle_r	ankle_angle_r	subtalar_angle_r	mtp_angle_r	hip_flexion_l	hip_adduction_l	hip_rotation_l	knee_angle_l	ankle_angle_l	subtalar_angle_l	mtp_angle_l	lumbar_extension	lumbar_bending	lumbar_rotation
      0.54200000	     -1.57016089	      1.57216505	      7.87618002	     -0.75998750	      0.89277144	      0.29650927	     26.42848986	     -1.54129493	     -9.65434714	     -2.53936776	      3.02146332	      0.19724967	      3.71704271	    -15.93113271	      1.53246989	      5.35903738	     -8.49894195	     14.99443456	      1.62039405	      9.85510331	     -6.16997239	     -2.89295504	     -9.65707791
      0.54616667	     -1.60482171	      1.55080855	      7.94561875	     -0.75421338	      0.89175384	      0.29678696	     26.55162871	     -1.46682569	     -9.32925724	     -3.00437382	      3.03156539	     -0.03310723	      3.69263241	    -15.94639992	      1.42977106	      5.37557474	     -9.19922229	     15.15578842	      1.77372907	      9.90456986	     -6.11582338	     -2.80134829	     -9.63500480
      0.55033333	     -1.64400996	      1.49405465	      8.00143595	     -0.74837767	      0.89075355	      0.29711530	     26.68044062	     -1.34529093	     -9.01299391	     -3.53283965	      2.89899365	     -0.38379444	      3.66781317	    -15.90562693	      1.27822252	      5.19262787	     -9.99956810	     15.25792305	      2.19360231	     10.03403138	     -6.04459738	     -2.67856865	     -9.58082296
      0.55450000	     -1.65069815	      1.43475448	      8.05019657	     -0.74250739	      0.88982451	      0.29744600	     26.78387455	     -1.21550894	     -8.68454608	     -4.15495311	      2.86264741	     -0.71550805	      3.67064415	    -15.91470752	      1.13073022	      5.13835540	    -10.78079064	     15.38981612	      2.39141153	     10.14370678	     -6.00771610	     -2.52690797	     -9.53264199
      0.55866667	     -1.68007572	      1.35073968	      8.08778838	     -0.73658007	      0.88890783	      0.29782487	     26.91481164	     -1.05287911	     -8.39028795	     -4.82525892	      2.60517431	     -1.16748769	      3.69304443	    -15.84800209	      0.94658056	      4.90601504	    -11.64655425	     15.41536937	      2.84903001	     10.38812301	     -5.93873772	     -2.37525637	     -9.44233487
      0.56283333	     -1.69589315	      1.26752095	      8.10841417	     -0.73063171	      0.88801896	      0.29822258	     27.04719298	     -0.88209758	     -8.04938780	     -5.58500237	      2.49432880	     -1.61167156	      3.72288912	    -15.81267596	      0.77823780	      4.80097980	    -12.49861219	     15.46168346	      3.03952113	     10.56963791	     -5.88940762	     -2.20034277	     -9.36641079
      0.56700000	     -1.64355078	      1.12501776	      8.12107344	     -0.72456494	      0.88726842	      0.29865914	     27.08131140	     -0.63106098	     -7.77557304	     -6.31871128	      2.15601848	     -2.17869708	      3.85922638	    -15.80297067	      0.51039119	      4.44796413	    -13.42932815	     15.49142284	      3.61239472	     11.30329977	     -5.88151581	     -1.93872296	     -9.24528769
      0.57116667	     -1.64668665	      1.00587465	      8.12796287	     -0.71851438	      0.88648338	      0.29911229	     27.18941990	     -0.40629690	     -7.45638750	     -7.11511539	      1.80758440	     -2.79767861	      4.09443745	    -15.71792568	      0.28842539	      4.20334594	    -14.39276744	     15.41175733	      3.95686470	     12.47352777	     -5.82007122	     -1.72233210	     -9.08883215
      0.57533333	     -1.71117983	      0.94674055	      8.12132201	     -0.71249591	      0.88565564	      0.29952424	     27.42814919	     -0.26399617	     -7.21127751	     -8.08387720	      1.54399785	     -3.21773695	      4.13099700	    -15.59890956	      0.17330051	      4.16916035	    -15.29918585	     15.19546262	      3.93853617	     12.67356881	     -5.69613190	     -1.59444664	     -9.01214015
      0.57950000	     -1.73838599	      0.84687072	      8.10386963	     -0.70640297	      0.88491075	      0.29998182	     27.60148386	     -0.06042807	     -6.94136537	     -9.01188341	      1.18244846	     -3.79608039	      4.17815271	    -15.46945942	     -0.00637885	      3.97747381	    -16.30623470	     15.00714105	      4.11840836	     12.93560233	     -5.57816369	     -1.39252989	     -8.86098660
      0.58366667	     -1.66763532	      0.67285459	      8.08792953	     -0.70023717	      0.88434896	      0.30050409	     27.63519361	      0.24133677	     -6.71169018	     -9.86486277	      0.64176077	     -4.45816740	      4.34622247	    -15.39872421	     -0.30987172	      3.62542413	    -17.38808879	     14.87256501	      4.60591187	     13.84125308	     -5.61629380	     -1.11540365	     -8.65041214
      0.58783333	     -1.73957305	      0.58957365	      8.03771436	     -0.69409288	      0.88362971	      0.30099104	     27.89821622	      0.42661259	     -6.46992619	    -10.91811446	      0.35746388	     -4.90339555	      4.39470312	    -15.20755638	     -0.44285990	      3.51010358	    -18.41061583	     14.45584137	      4.56795739	     14.13520463	     -5.44291480	     -0.93660855	     -8.54962939
